<svg width="1200" height="320" viewBox="0 0 1200 320" fill="none" xmlns="http://www.w3.org/2000/svg">
  <defs>
    <linearGradient id="bg" x1="0" y1="0" x2="1200" y2="320" gradientUnits="userSpaceOnUse">
      <stop stop-color="#0E1B2B"/>
      <stop offset="1" stop-color="#08111B"/>
    </linearGradient>
    <linearGradient id="accent" x1="128" y1="48" x2="256" y2="208" gradientUnits="userSpaceOnUse">
      <stop stop-color="#25D0AB"/>
      <stop offset="1" stop-color="#38F0C9"/>
    </linearGradient>
    <linearGradient id="warm" x1="0" y1="0" x2="1200" y2="320" gradientUnits="userSpaceOnUse">
      <stop stop-color="#FFC857"/>
      <stop offset="1" stop-color="#FF8B4D"/>
    </linearGradient>
  </defs>
  <rect x="12" y="12" width="1176" height="296" rx="52" fill="url(#bg)" stroke="rgba(255,255,255,0.12)" stroke-width="2"/>
  <circle cx="170" cy="160" r="92" fill="url(#accent)"/>
  <path d="M120 164c18-28 44-44 78-44 25 0 44 7 58 22 8 9 13 18 16 27h-35l-16-10c-10-6-20-9-31-9-22 0-41 10-56 30l-14-16z" fill="white" opacity="0.88"/>
  <path d="M160 145c18 1 31 10 38 28 5 12 5 25 0 39l29 18c9-19 12-38 9-57-4-24-17-44-39-60-26-19-56-24-89-14 8 18 20 33 35 46 7 6 12 10 16 12z" fill="url(#warm)" opacity="0.92"/>
  <circle cx="198" cy="149" r="7" fill="#08111B"/>
  <path d="M226 170l26-12-8 28-18-16z" fill="#FF8B4D"/>
  <path d="M326 90h18c13 0 23 10 23 23v94c0 13-10 23-23 23h-18V90z" fill="rgba(255,255,255,0.12)"/>
  <text x="316" y="142" fill="#ECF6FF" font-family="Georgia, 'Times New Roman', serif" font-size="78" font-weight="700" letter-spacing="-2">Mochi Bird</text>
  <text x="318" y="195" fill="#9FB5C8" font-family="Trebuchet MS, Verdana, sans-serif" font-size="28" font-weight="700" letter-spacing="3">DISCORD ACTIVITY</text>
  <rect x="317" y="214" width="398" height="8" rx="4" fill="url(#warm)" opacity="0.7"/>
  <text x="756" y="143" fill="#25D0AB" font-family="Trebuchet MS, Verdana, sans-serif" font-size="26" font-weight="800" letter-spacing="2">LAUNCH</text>
  <text x="756" y="176" fill="#9FB5C8" font-family="Trebuchet MS, Verdana, sans-serif" font-size="18">Play, score, and collect cans.</text>
</svg>
